# xmcd CD database file
#
# Track frame offsets:
#	150
#	69465
#	109102
#	146737
#	185000
#
# Disc length: 3231 seconds
#
# Revision: 1
# Processed by: cddbd v1.5.1PL0 Copyright (c) Steve Scherf et al.
# Submitted via: CDex 1.51
#
DISCID=480c9d05
DTITLE=Deep Purple - Live Poland 91 CD2
DYEAR=1900
DGENRE=Hard Rock
TTITLE0=Difficult To Cure-Keyboard Solo
TTITLE1=Knockin On Your Back Door
TTITLE2=Lazy
TTITLE3=Highway Star
TTITLE4=Smoke On The Water
EXTD=
EXTT0=
EXTT1=
EXTT2=
EXTT3=
EXTT4=
PLAYORDER=
